<svg width="30" height="30" viewBox="0 0 30 30" fill="none" xmlns="http://www.w3.org/2000/svg">
<g id="Frame 1">
<path id="Arrow 1" d="M16.0607 2.93934C15.4749 2.35355 14.5251 2.35355 13.9393 2.93934L4.3934 12.4853C3.80761 13.0711 3.80761 14.0208 4.3934 14.6066C4.97918 15.1924 5.92893 15.1924 6.51472 14.6066L15 6.12132L23.4853 14.6066C24.0711 15.1924 25.0208 15.1924 25.6066 14.6066C26.1924 14.0208 26.1924 13.0711 25.6066 12.4853L16.0607 2.93934ZM16.5 6V4H13.5V6H16.5Z" fill="blue"/>
<path id="Arrow 2" d="M16.0607 14.9393C15.4749 14.3536 14.5251 14.3536 13.9393 14.9393L4.3934 24.4853C3.80761 25.0711 3.80761 26.0208 4.3934 26.6066C4.97918 27.1924 5.92893 27.1924 6.51472 26.6066L15 18.1213L23.4853 26.6066C24.0711 27.1924 25.0208 27.1924 25.6066 26.6066C26.1924 26.0208 26.1924 25.0711 25.6066 24.4853L16.0607 14.9393ZM16.5 18V16H13.5V18H16.5Z" fill="blue"/>
</g>
</svg>
